<svg width="267" height="342" viewBox="0 0 267 342" fill="none" xmlns="http://www.w3.org/2000/svg">
<g filter="url(#filter0_dd_1044_337)">
<rect x="14" y="14" width="227" height="302" rx="20" fill="url(#paint0_linear_1044_337)"/>
</g>
<rect x="14" y="14" width="227" height="302" rx="20" fill="url(#paint1_linear_1044_337)" fill-opacity="0.5"/>
<g opacity="0.8" clip-path="url(#clip0_1044_337)">
<path d="M181.512 238.959C181.512 238.959 181.609 236.94 183.612 237.174L181.512 238.959Z" fill="#3F3D56"/>
<path d="M180.944 237.038C181.498 237.038 181.946 236.595 181.946 236.049C181.946 235.503 181.498 235.061 180.944 235.061C180.39 235.061 179.941 235.503 179.941 236.049C179.941 236.595 180.39 237.038 180.944 237.038Z" fill="white"/>
<path d="M181.064 237.714H180.781V239.667H181.064V237.714Z" fill="#3F3D56"/>
<path d="M113.452 179.607C113.452 180.101 113.436 180.591 113.403 181.078C113.221 183.881 112.503 186.626 111.286 189.166C111.277 189.188 111.266 189.208 111.256 189.228C111.2 189.346 111.141 189.463 111.082 189.58C110.72 190.298 110.319 190.997 109.879 191.672C107.874 194.772 105.124 197.337 101.874 199.14C98.6243 200.944 94.974 201.93 91.2457 202.012L91.4705 214.757L94.4017 213.236L94.925 214.217L91.4925 215.999L91.9122 239.67L91.9168 239.986L89.6505 240.484L89.6552 240.166L90.3687 202.014C87.3679 201.971 84.4054 201.341 81.6534 200.161C78.9015 198.98 76.4148 197.272 74.3377 195.136C74.1947 194.99 74.0532 194.84 73.9149 194.691C73.9087 194.685 73.904 194.678 73.8992 194.674C72.1687 192.813 70.7691 190.677 69.7595 188.357C69.7815 188.382 69.805 188.405 69.8271 188.43C67.5453 183.168 67.3905 177.245 69.3945 171.875C71.3985 166.505 75.4095 162.093 80.6055 159.545C80.6841 159.506 80.7643 159.469 80.8429 159.43C85.9827 156.989 91.8651 156.541 97.3241 158.175C102.783 159.809 107.42 163.406 110.316 168.253C110.455 168.482 110.588 168.716 110.717 168.952C112.516 172.223 113.456 175.886 113.452 179.607Z" fill="#E5E5E5"/>
<path d="M110.391 189.24C126.843 189.24 140.18 176.089 140.18 159.865C140.18 143.642 126.843 130.491 110.391 130.491C93.9387 130.491 80.6016 143.642 80.6016 159.865C80.6016 176.089 93.9387 189.24 110.391 189.24Z" fill="white"/>
<path opacity="0.2" d="M88.3958 140.246C81.9282 155.164 88.9496 172.428 104.079 178.805C109.818 181.225 116.184 181.806 122.277 180.465C128.369 179.125 133.881 175.931 138.034 171.335C131.567 186.253 114.059 193.178 98.9299 186.801C83.8005 180.424 76.7782 163.161 83.2451 148.242C84.512 145.319 86.2515 142.619 88.3958 140.246Z" fill="black"/>
<path d="M112.004 241.697L108.961 240.856L108.967 240.534L109.879 191.672L109.924 189.236L109.926 189.164L110.085 180.628L110.316 168.255V168.253L110.473 159.866H110.556L110.716 168.952L110.926 180.779L111.075 189.171V189.233L111.081 189.578V189.58L111.37 205.938L111.4 207.563L111.997 241.372L112.004 241.697Z" fill="#3F3D56"/>
<path d="M115.213 203.943L110.289 206.5L110.975 207.785L115.9 205.228L115.213 203.943Z" fill="#3F3D56"/>
<path d="M109.808 247.611H95.7617V247.921H109.808V247.611Z" fill="#CBCBCB"/>
<path d="M135.585 252.88H121.539V253.19H135.585V252.88Z" fill="#CBCBCB"/>
<path d="M175.663 248.851H161.617V249.161H175.663V248.851Z" fill="#CBCBCB"/>
<path d="M169.246 236.239V227.223C169.246 227.223 172.809 233.615 169.246 236.239Z" fill="#F1F1F1"/>
<path d="M169.466 236.237L162.73 230.14C162.73 230.14 169.915 231.874 169.466 236.237Z" fill="#F1F1F1"/>
<path d="M99.6211 238.409V229.393C99.6211 229.393 103.184 235.785 99.6211 238.409Z" fill="#F1F1F1"/>
<path d="M99.8407 238.407L93.1055 232.31C93.1055 232.31 100.29 234.044 99.8407 238.407Z" fill="#F1F1F1"/>
<path d="M123.824 244.918V233.707C123.824 233.707 128.255 241.655 123.824 244.918Z" fill="#F1F1F1"/>
<path d="M124.098 244.916L115.723 237.334C115.723 237.334 124.657 239.491 124.098 244.916Z" fill="#F1F1F1"/>
<path d="M195.822 243.546L195.735 243.845L169.358 236.437L149.488 240.756L124.075 245.037L124.041 245.028L112.005 241.697L108.962 240.856L99.6688 238.283L91.9174 239.986L89.651 240.484L84.7238 241.567L84.6562 241.265L89.6557 240.166L91.9126 239.67L99.6783 237.964L99.716 237.973L108.968 240.533L111.999 241.372L124.091 244.719L149.426 240.453L169.368 236.118L169.407 236.127L195.822 243.546Z" fill="#CBCBCB"/>
<path d="M148.63 149.311L150.641 147.725C149.079 147.555 148.437 148.395 148.174 149.06C146.954 148.561 145.625 149.215 145.625 149.215L149.648 150.656C149.446 150.121 149.092 149.655 148.63 149.311Z" fill="#3F3D56"/>
<path d="M74.7627 148.691L76.7736 147.105C75.2114 146.935 74.5696 147.775 74.3069 148.44C73.0864 147.941 71.7578 148.596 71.7578 148.596L75.7813 150.036C75.5783 149.501 75.225 149.035 74.7627 148.691Z" fill="#3F3D56"/>
<path d="M144.231 178.912L146.242 177.326C144.68 177.156 144.038 177.996 143.776 178.661C142.555 178.161 141.227 178.816 141.227 178.816L145.25 180.257C145.047 179.722 144.694 179.256 144.231 178.912Z" fill="#3F3D56"/>
<path d="M130.574 247.124L132.111 247.687L135.045 242.11L132.777 241.279L130.574 247.124Z" fill="#FFB7B7"/>
<path d="M130.369 246.486L133.396 247.595L133.396 247.595C133.907 247.782 134.322 248.162 134.55 248.652C134.777 249.141 134.798 249.699 134.608 250.204L134.585 250.265L129.629 248.45L130.369 246.486Z" fill="#2F2E41"/>
<path d="M145.7 248.698L147.339 248.698L148.119 242.462L145.699 242.462L145.7 248.698Z" fill="#FFB7B7"/>
<path d="M145.414 248.17L148.643 248.17H148.643C149.189 248.17 149.712 248.384 150.098 248.764C150.484 249.145 150.701 249.661 150.701 250.199V250.265L145.414 250.265L145.414 248.17Z" fill="#2F2E41"/>
<path d="M138.193 205.449L138.728 204.394L143.275 206.635L143.142 207.559L144.011 208.679C144.011 208.679 145.482 209.471 145.215 212.108L144.947 214.614L144.613 217.845L146.953 225.823L148.157 236.373L149.026 244.879L144.813 244.681L140.935 230.834L134.114 245.736L129.434 244.549L135.853 229.779L136.655 223.581C136.655 223.581 136.12 220.284 138.661 218.043L138.26 216.856V215.393L136.923 208.416L138.193 205.449Z" fill="#2F2E41"/>
<path opacity="0.2" d="M138.065 220.527L137.914 220.569L140.856 230.855L141.008 230.813L138.065 220.527Z" fill="black"/>
<path d="M138.326 218.504H144.879V217.845H138.326V218.504Z" fill="#3F3D56"/>
<path d="M144.877 218.9C145.025 218.9 145.144 218.604 145.144 218.24C145.144 217.876 145.025 217.581 144.877 217.581C144.729 217.581 144.609 217.876 144.609 218.24C144.609 218.604 144.729 218.9 144.877 218.9Z" fill="#3F3D56"/>
<path d="M145.052 202.344C145.996 200.641 145.361 198.505 143.634 197.574C141.906 196.643 139.74 197.269 138.796 198.972C137.851 200.676 138.486 202.812 140.214 203.743C141.941 204.674 144.107 204.048 145.052 202.344Z" fill="#FFB7B7"/>
<path d="M136.47 199.404C138.212 199.404 139.624 198.011 139.624 196.294C139.624 194.576 138.212 193.184 136.47 193.184C134.728 193.184 133.316 194.576 133.316 196.294C133.316 198.011 134.728 199.404 136.47 199.404Z" fill="#2F2E41"/>
<path d="M132.467 195.961C132.343 196.373 132.306 196.806 132.36 197.232C132.414 197.659 132.557 198.07 132.78 198.439C133.003 198.809 133.301 199.128 133.656 199.378C134.011 199.628 134.414 199.803 134.841 199.891C135.268 199.98 135.708 199.98 136.135 199.892C136.562 199.804 136.965 199.63 137.32 199.38C137.675 199.131 137.974 198.812 138.198 198.442C138.421 198.073 138.565 197.663 138.619 197.236C138.393 197.984 137.89 198.621 137.21 199.02C136.53 199.42 135.722 199.552 134.947 199.392C134.173 199.231 133.488 198.789 133.028 198.154C132.569 197.518 132.368 196.735 132.467 195.961Z" fill="#2F2E41"/>
<path d="M144.926 199.682C145.018 200.486 144.839 201.298 144.417 201.991C143.994 202.685 143.351 203.221 142.588 203.518C141.825 203.814 140.984 203.855 140.195 203.632C139.406 203.409 138.714 202.937 138.225 202.287C137.737 201.637 137.479 200.846 137.493 200.037C137.506 199.228 137.79 198.446 138.299 197.812C138.809 197.179 139.517 196.728 140.313 196.531C141.108 196.334 141.948 196.401 142.701 196.722C143.324 196.227 144.096 196.381 144.723 196.903C145.433 197.494 145.644 197.9 146.194 198.872C145.653 198.947 145.467 199.607 144.926 199.682Z" fill="#2F2E41"/>
<path d="M131.822 210.254C131.862 211.296 131.941 213.346 131.941 213.451C131.941 213.561 133.518 216.78 134.199 218.165V218.166C134.247 218.263 134.29 218.352 134.329 218.43C134.382 218.537 134.464 218.628 134.568 218.69C134.671 218.753 134.79 218.785 134.911 218.782L137.887 218.73C138.051 218.727 138.207 218.662 138.323 218.548C138.439 218.435 138.506 218.281 138.511 218.12L138.843 205.208C138.844 205.165 138.836 205.123 138.82 205.083C138.805 205.044 138.781 205.008 138.751 204.977C138.721 204.947 138.685 204.922 138.645 204.906C138.605 204.889 138.562 204.881 138.519 204.881H134.681C134.519 204.881 134.36 204.926 134.223 205.011C134.085 205.096 133.975 205.217 133.904 205.361L132.062 209.119C131.889 209.472 131.807 209.862 131.822 210.254V210.254Z" fill="white"/>
<path d="M138.561 217.234C139.325 216.777 140.011 216.206 140.595 215.539C141.951 214.035 142.776 212.138 142.946 210.132C143.097 208.416 142.752 207.141 141.919 206.341C140.861 205.324 139.421 205.472 139.36 205.479L139.296 205.486L138.32 206.3L138.596 206.622L139.469 205.894C139.737 205.88 140.828 205.878 141.624 206.646C142.358 207.354 142.659 208.514 142.52 210.096C142.358 212.005 141.575 213.812 140.287 215.247C139.731 215.881 139.079 216.426 138.355 216.865L138.561 217.234Z" fill="white"/>
<path d="M133.025 212.328L132.996 212.466L138.197 213.519L138.225 213.381L133.025 212.328Z" fill="#3F3D56"/>
<path d="M136.451 204.878L136.113 213.037L136.256 213.043L136.593 204.883L136.451 204.878Z" fill="#3F3D56"/>
<path d="M131.822 210.254C131.862 211.296 131.941 213.346 131.941 213.451C131.941 213.561 133.518 216.78 134.199 218.165L132.929 210.897C132.88 210.617 132.757 210.355 132.571 210.138C132.386 209.921 132.145 209.756 131.874 209.661C131.832 209.856 131.814 210.055 131.822 210.254Z" fill="#3F3D56"/>
<path d="M139.623 225.486C139.51 225.344 139.431 225.178 139.39 225.002C139.35 224.826 139.349 224.643 139.388 224.466C139.427 224.289 139.504 224.123 139.616 223.979C139.727 223.836 139.868 223.717 140.031 223.633L139.773 220.819L141.469 220.247L141.776 224.227C141.902 224.505 141.919 224.819 141.825 225.109C141.731 225.399 141.532 225.645 141.267 225.8C141.001 225.955 140.687 226.009 140.384 225.951C140.081 225.893 139.81 225.728 139.623 225.486Z" fill="#FFB7B7"/>
<path d="M138.51 208.501C138.476 208.073 138.589 207.647 138.828 207.29C139.068 206.932 139.421 206.663 139.833 206.526C140.196 206.408 140.588 206.408 140.951 206.527C141.339 206.657 141.676 206.905 141.914 207.234C142.152 207.564 142.279 207.959 142.276 208.363L142.404 222.656L139.398 222.763L138.51 208.501Z" fill="#CBCBCB"/>
</g>
<g opacity="0.4" filter="url(#filter1_f_1044_337)">
<path d="M14 20.9383C14 20.9383 14.3445 18.9039 14.9183 17.8343C15.4921 16.7648 16.9385 15.4607 16.9385 15.4607V314.539C16.9385 314.539 15.4921 313.418 14.9183 312.348C14.3445 311.279 14 309.062 14 309.062V20.9383Z" fill="url(#paint2_linear_1044_337)"/>
</g>
<g opacity="0.4" filter="url(#filter2_f_1044_337)">
<path d="M241 20.9383C241 20.9383 240.655 18.9039 240.082 17.8343C239.508 16.7648 238.061 15.4607 238.061 15.4607V314.539C238.061 314.539 239.508 313.418 240.082 312.348C240.655 311.279 241 309.062 241 309.062V20.9383Z" fill="url(#paint3_linear_1044_337)"/>
</g>
<g opacity="0.55" filter="url(#filter3_f_1044_337)">
<rect x="23.918" y="14" width="11.3867" height="302" fill="url(#paint4_linear_1044_337)"/>
</g>
<defs>
<filter id="filter0_dd_1044_337" x="0" y="0" width="267" height="342" filterUnits="userSpaceOnUse" color-interpolation-filters="sRGB">
<feFlood flood-opacity="0" result="BackgroundImageFix"/>
<feColorMatrix in="SourceAlpha" type="matrix" values="0 0 0 0 0 0 0 0 0 0 0 0 0 0 0 0 0 0 127 0" result="hardAlpha"/>
<feMorphology radius="5" operator="dilate" in="SourceAlpha" result="effect1_dropShadow_1044_337"/>
<feOffset dx="6" dy="6"/>
<feGaussianBlur stdDeviation="7.5"/>
<feColorMatrix type="matrix" values="0 0 0 0 0 0 0 0 0 0 0 0 0 0 0 0 0 0 0.1 0"/>
<feBlend mode="normal" in2="BackgroundImageFix" result="effect1_dropShadow_1044_337"/>
<feColorMatrix in="SourceAlpha" type="matrix" values="0 0 0 0 0 0 0 0 0 0 0 0 0 0 0 0 0 0 127 0" result="hardAlpha"/>
<feOffset dx="6" dy="6"/>
<feGaussianBlur stdDeviation="5"/>
<feColorMatrix type="matrix" values="0 0 0 0 0 0 0 0 0 0 0 0 0 0 0 0 0 0 0.2 0"/>
<feBlend mode="normal" in2="effect1_dropShadow_1044_337" result="effect2_dropShadow_1044_337"/>
<feBlend mode="normal" in="SourceGraphic" in2="effect2_dropShadow_1044_337" result="shape"/>
</filter>
<filter id="filter1_f_1044_337" x="13.5" y="14.9607" width="3.9375" height="300.079" filterUnits="userSpaceOnUse" color-interpolation-filters="sRGB">
<feFlood flood-opacity="0" result="BackgroundImageFix"/>
<feBlend mode="normal" in="SourceGraphic" in2="BackgroundImageFix" result="shape"/>
<feGaussianBlur stdDeviation="0.25" result="effect1_foregroundBlur_1044_337"/>
</filter>
<filter id="filter2_f_1044_337" x="237.562" y="14.9607" width="3.9375" height="300.079" filterUnits="userSpaceOnUse" color-interpolation-filters="sRGB">
<feFlood flood-opacity="0" result="BackgroundImageFix"/>
<feBlend mode="normal" in="SourceGraphic" in2="BackgroundImageFix" result="shape"/>
<feGaussianBlur stdDeviation="0.25" result="effect1_foregroundBlur_1044_337"/>
</filter>
<filter id="filter3_f_1044_337" x="23.818" y="13.9" width="11.5867" height="302.2" filterUnits="userSpaceOnUse" color-interpolation-filters="sRGB">
<feFlood flood-opacity="0" result="BackgroundImageFix"/>
<feBlend mode="normal" in="SourceGraphic" in2="BackgroundImageFix" result="shape"/>
<feGaussianBlur stdDeviation="0.05" result="effect1_foregroundBlur_1044_337"/>
</filter>
<linearGradient id="paint0_linear_1044_337" x1="241" y1="196.047" x2="14.3393" y2="104.186" gradientUnits="userSpaceOnUse">
<stop stop-color="#79B9C5"/>
<stop offset="1" stop-color="#7CBCC8"/>
</linearGradient>
<linearGradient id="paint1_linear_1044_337" x1="241" y1="316" x2="15.5354" y2="16.3727" gradientUnits="userSpaceOnUse">
<stop stop-opacity="0.2"/>
<stop offset="0.338542" stop-opacity="0"/>
<stop offset="0.630208" stop-color="white" stop-opacity="0"/>
<stop offset="1" stop-color="white" stop-opacity="0.3"/>
</linearGradient>
<linearGradient id="paint2_linear_1044_337" x1="16.9385" y1="149.517" x2="14" y2="149.517" gradientUnits="userSpaceOnUse">
<stop stop-color="#7CBCC8" stop-opacity="0"/>
<stop offset="0.614583" stop-color="#155662"/>
</linearGradient>
<linearGradient id="paint3_linear_1044_337" x1="238.061" y1="149.517" x2="241" y2="149.517" gradientUnits="userSpaceOnUse">
<stop stop-color="#7CBCC8" stop-opacity="0"/>
<stop offset="0.614583" stop-color="#155662"/>
</linearGradient>
<linearGradient id="paint4_linear_1044_337" x1="35.3047" y1="148.771" x2="23.918" y2="148.771" gradientUnits="userSpaceOnUse">
<stop stop-color="#7CBCC8" stop-opacity="0"/>
<stop offset="0.354167" stop-color="#186D7D" stop-opacity="0.6"/>
<stop offset="0.640625" stop-color="#186D7D" stop-opacity="0.6"/>
<stop offset="1" stop-color="#7CBCC8" stop-opacity="0"/>
</linearGradient>
<clipPath id="clip0_1044_337">
<rect width="127.825" height="122.699" fill="white" transform="translate(67.9961 130.491)"/>
</clipPath>
</defs>
</svg>
