<svg width="133" height="134" viewBox="0 0 133 134" fill="none" xmlns="http://www.w3.org/2000/svg">
<rect width="133" height="134" rx="66.5" fill="white"/>
<path d="M68.5 54C68.5 52.6193 67.3807 51.5 66 51.5C64.6193 51.5 63.5 52.6193 63.5 54L66 54L68.5 54ZM64.2322 56.2678C65.2085 57.2441 66.7915 57.2441 67.7678 56.2678L83.6777 40.3578C84.654 39.3815 84.654 37.7986 83.6777 36.8223C82.7013 35.846 81.1184 35.846 80.1421 36.8223L66 50.9645L51.8578 36.8223C50.8815 35.846 49.2986 35.846 48.3223 36.8223C47.346 37.7987 47.346 39.3816 48.3223 40.3579L64.2322 56.2678ZM66 54L63.5 54L63.5 54.5L66 54.5L68.5 54.5L68.5 54L66 54Z" fill="#1600AB"/>
</svg>
